<svg xmlns="http://www.w3.org/2000/svg" viewBox="0 0 1024 830" fill="none">
  <style>
    .grip { fill: #302c35; stroke: #8c8298; stroke-width: 4; }
    .body { fill: #242229; stroke: #a49aac; stroke-width: 4; }
    .well { fill: #131313; stroke: #4b4552; stroke-width: 4; }
    .stick { fill: #39343f; stroke: #8c8298; stroke-width: 4; }
    .button { fill: #45404b; stroke: #17151a; stroke-width: 4; }
    .accent { fill: #a77fdb; fill-opacity: .2; stroke: #a77fdb; stroke-width: 4; }
    .shoulder { fill: #3b3642; stroke: #17151a; stroke-width: 4; }
  </style>

  <path class="grip" d="M4.5 710C7 742 4 783.5 57.5 818.5S163.5 800 178.5 761.5 239.5 640 257 629.5C208.167 572.269 99.9 437.125 57.5 354.403 22.265 494.962 2.741 687.487 4.5 710Z"/>
  <path class="grip" d="M942.5 818.5C996 783.5 993 742 995.5 710c1.759-22.513-17.765-215.038-53-355.597C900.1 437.125 791.833 572.269 743 629.5c17.5 10.5 63.5 93.5 78.5 132s67.5 92 121 57Z"/>
  <path class="body" d="M257 629.5C271 621.1 424.833 620.333 500 621c75.167-.667 229 0 243 8.5 48.833-57.232 157.1-192.375 199.5-275.097C927.651 295.168 910.016 245.163 890 221c-32.534-39.282-128.408-58.031-223-65.891C610 151 548 151 500 151s-110 0-167 4.109C238.408 162.969 142.534 181.718 110 221c-20.012 24.163-37.651 74.168-52.5 133.403C99.9 437.125 208.167 572.268 257 629.5Z"/>

  <circle class="well" cx="224" cy="347" r="87"/>
  <circle class="stick" cx="224" cy="347" r="59"/>
  <circle class="well" cx="632" cy="483" r="87"/>
  <circle class="stick" cx="632" cy="483" r="59"/>

  <path class="button" d="M325 411.5h43v51l-21.5 21.5-21.5-21.5v-51Z"/>
  <path class="button" d="M419 462.5v43h-51l-21.5-21.5 21.5-21.5h51Z"/>
  <path class="button" d="M325 556.5h43v-51L346.5 484 325 505.5v51Z"/>
  <path class="button" d="M274 462.5v43h51l21.5-21.5-21.5-21.5h-51Z"/>

  <circle class="button" cx="764" cy="277" r="37"/>
  <circle class="button" cx="686" cy="345" r="37"/>
  <circle class="button" cx="842" cy="345" r="37"/>
  <circle class="button" cx="764" cy="415" r="37"/>

  <circle class="button" cx="625" cy="269" r="22"/>
  <circle class="button" cx="375" cy="269" r="22"/>
  <circle class="accent" cx="570" cy="347" r="22"/>
  <rect class="accent" x="408" y="326" width="42" height="42" rx="6"/>

  <path class="shoulder" d="M890 221C857.466 181.718 761.592 162.969 667 155.109c6.167-3.87 20.4-12.209 28-14.609 9.5-3 60.5 2 111.5 12 40.8 8 72.667 49 83.5 68.5Z"/>
  <path class="shoulder" d="M110 221C142.534 181.718 238.408 162.969 333 155.109c-6.167-3.87-20.4-12.209-28-14.609-9.5-3-60.5 2-111.5 12-40.8 8-72.667 49-83.5 68.5Z"/>
  <path class="shoulder" d="M722.379 30.833c-9.902 3.607-18.378 51.481-21.379 74.967 5.626 5.073 49.508 6.2 76.513 6.2 27.004 0 69.762-6.2 74.825-11.273 5.063-5.073-20.254-58.057-30.38-65.948-10.127-7.892-87.202-8.455-99.579-3.946Z"/>
  <path class="shoulder" d="M276.621 30.833C286.523 34.44 294.999 82.314 298 105.8c-5.626 5.073-49.508 6.2-76.513 6.2-27.004 0-69.762-6.2-74.825-11.273-5.063-5.073 20.254-58.057 30.38-65.948 10.127-7.892 87.202-8.455 99.579-3.946Z"/>
</svg>
